<svg width="32" height="32" viewBox="0 0 32 32" fill="none" xmlns="http://www.w3.org/2000/svg">
<path fill-rule="evenodd" clip-rule="evenodd" d="M19.9864 9.42378C19.9928 9.33098 19.9961 9.2373 19.9961 9.14286C19.9961 6.93372 18.2052 5.14286 15.9961 5.14286C13.7869 5.14286 11.9961 6.93372 11.9961 9.14286C11.9961 9.23901 11.9995 9.33437 12.0061 9.42882C13.2249 8.87815 14.5775 8.57163 16.0018 8.57163C17.4217 8.57163 18.7705 8.87628 19.9864 9.42378ZM21.0685 9.99598C21.1148 9.71849 21.1389 9.43349 21.1389 9.14286C21.1389 6.30254 18.8364 4 15.9961 4C13.1557 4 10.8532 6.30253 10.8532 9.14286C10.8532 9.43573 10.8777 9.72288 10.9247 10.0024C8.21329 11.6678 6.3821 14.6272 6.29109 18.0206C4.31323 18.737 2.90002 20.6322 2.90002 22.8573C2.90002 25.6977 5.20256 28.0002 8.04288 28.0002C9.29547 28.0002 10.4435 27.5524 11.3355 26.8081C12.7204 27.5681 14.3106 28.0002 16.0018 28.0002C17.6902 28.0002 19.2779 27.5695 20.6612 26.8119C21.5526 27.5539 22.6988 28.0002 23.9493 28.0002C26.7896 28.0002 29.0922 25.6977 29.0922 22.8573C29.0922 20.6365 27.6845 18.7444 25.7127 18.0248C25.6229 14.6253 23.7868 11.6609 21.0685 9.99598ZM12.1543 25.9474C13.3113 26.5295 14.6183 26.8573 16.0018 26.8573C17.3821 26.8573 18.6861 26.5311 19.841 25.9515C19.1916 25.0906 18.8065 24.0189 18.8065 22.8573C18.8065 22.7687 18.8087 22.6805 18.8131 22.5929C18.0051 23.1214 17.0393 23.4286 16.0018 23.4286C14.9592 23.4286 13.9891 23.1184 13.1787 22.5852C13.1834 22.6753 13.1857 22.766 13.1857 22.8573C13.1857 24.0171 12.8019 25.0871 12.1543 25.9474ZM10.866 18.558C10.8613 18.4678 10.8589 18.3771 10.8589 18.2858C10.8589 16.2966 11.9882 14.5713 13.6406 13.7158C12.5758 13.1662 11.7276 12.2556 11.2579 11.1459C9.0904 12.5889 7.61742 14.9925 7.44695 17.7486C7.64247 17.7261 7.84132 17.7145 8.04288 17.7145C9.08548 17.7145 10.0556 18.0247 10.866 18.558ZM7.4521 18.9007C7.64488 18.8721 7.84216 18.8573 8.04288 18.8573C10.252 18.8573 12.0429 20.6482 12.0429 22.8573C12.0429 23.8052 11.7132 24.676 11.1623 25.3614C9.06733 23.9257 7.64224 21.5838 7.4521 18.9007ZM6.33377 19.2398C6.61084 22.0826 8.11323 24.5663 10.306 26.156C9.6624 26.5984 8.88288 26.8573 8.04288 26.8573C5.83374 26.8573 4.04288 25.0665 4.04288 22.8573C4.04288 21.2597 4.97958 19.8807 6.33377 19.2398ZM23.9493 26.8573C23.1119 26.8573 22.3345 26.6 21.6921 26.1601C23.8865 24.5715 25.3907 22.088 25.6694 19.245C27.0177 19.8882 27.9493 21.264 27.9493 22.8573C27.9493 25.0665 26.1585 26.8573 23.9493 26.8573ZM20.834 25.3665C22.9325 23.9315 24.3606 21.5879 24.5514 18.9024C24.355 18.8727 24.154 18.8573 23.9493 18.8573C21.7402 18.8573 19.9493 20.6482 19.9493 22.8573C19.9493 23.8075 20.2806 24.6803 20.834 25.3665ZM20.7368 11.1399C22.9095 12.5825 24.3865 14.9894 24.5568 17.75C24.3575 17.7266 24.1548 17.7145 23.9493 17.7145C22.9118 17.7145 21.946 18.0217 21.138 18.5502C21.1424 18.4626 21.1446 18.3745 21.1446 18.2858C21.1446 16.2943 20.0128 14.5673 18.3573 13.7128C19.4213 13.1619 20.2684 12.2504 20.7368 11.1399ZM19.7348 10.5679C18.6063 10.0211 17.3399 9.71449 16.0018 9.71449C14.6599 9.71449 13.39 10.0229 12.2592 10.5726C12.8346 12.0756 14.2907 13.1429 15.9961 13.1429C17.7032 13.1429 19.1606 12.0734 19.7348 10.5679ZM16.0018 22.2858C18.2109 22.2858 20.0018 20.4949 20.0018 18.2858C20.0018 16.0766 18.2109 14.2858 16.0018 14.2858C13.7927 14.2858 12.0018 16.0766 12.0018 18.2858C12.0018 20.4949 13.7927 22.2858 16.0018 22.2858Z" fill="white"/>
</svg>
